<svg version="1.1" id="Layer_1" xmlns="http://www.w3.org/2000/svg" xmlns:xlink="http://www.w3.org/1999/xlink" x="0px" y="0px"
	 width="100%" viewBox="0 0 1024 1024" enable-background="new 0 0 1024 1024" xml:space="preserve">
  <defs>
    <symbol id="brand" viewBox="0 0 85 107">
      <path fill="#000000" opacity="1.000000" stroke="none" 
	d="
M431.502319,584.560730 
	C442.552368,608.796570 455.978851,631.041687 473.861237,650.963196 
	C481.570160,645.049133 489.172791,640.007385 497.487396,636.152039 
	C509.327362,630.662170 521.648438,626.709900 534.527039,624.504517 
	C542.488159,623.141174 542.494690,623.096558 543.732056,615.355591 
	C546.142578,600.276062 544.746582,585.577393 539.935608,571.056519 
	C534.175354,553.670349 529.046570,536.061768 527.256775,517.751282 
	C526.222046,507.165558 525.538879,496.419128 527.697144,485.909576 
	C529.647949,476.410248 537.605652,471.793732 547.144653,473.051056 
	C564.934326,475.395905 581.965942,480.353821 598.421082,487.339020 
	C602.083740,488.893799 604.880249,488.524567 608.077942,486.284210 
	C632.016479,469.512787 658.846252,462.703064 687.813538,463.780731 
	C693.931519,464.008331 700.074890,464.762421 706.098511,465.864319 
	C709.667114,466.517059 711.649109,465.288300 713.689026,462.709229 
	C721.036926,453.419159 728.926575,444.601318 737.782166,436.710632 
	C743.480896,431.632874 749.805542,428.198914 757.778381,430.939026 
	C763.372192,432.861511 766.517944,437.434082 769.284973,442.240936 
	C774.867310,451.938538 779.368896,462.143646 783.033508,472.709229 
	C784.995972,478.366974 787.059875,484.013458 788.562927,489.798859 
	C789.710571,494.216309 791.697815,496.149841 796.529785,495.779053 
	C804.011047,495.204956 811.478027,495.690887 818.730774,498.113922 
	C840.169922,505.276245 854.006042,520.333008 862.193787,540.767151 
	C874.059753,570.381042 873.435059,600.565430 864.681580,630.786926 
	C859.073608,650.148743 850.588745,668.177307 837.696350,683.862244 
	C835.456116,686.587708 835.299377,688.196228 837.934082,690.869263 
	C859.158813,712.402832 858.985168,743.910461 836.455139,763.938782 
	C825.009644,774.113281 816.774719,786.771790 806.275208,797.620789 
	C769.501587,835.618164 726.592407,864.552185 678.603760,886.357544 
	C644.275635,901.955688 608.482971,912.524109 571.240295,918.052307 
	C542.348450,922.341003 513.297363,923.448669 484.104797,921.453857 
	C410.029327,916.392151 342.837524,891.631897 281.552429,850.414978 
	C243.314301,824.698120 211.160828,792.517334 183.751022,755.481750 
	C150.162796,710.097900 128.611954,659.493774 117.954063,604.230652 
	C112.430809,575.591614 109.692253,546.595093 111.014267,517.396484 
	C113.089165,471.569092 122.024246,427.023621 137.392593,383.805634 
	C154.436218,335.876495 179.802841,292.804840 212.826889,254.098007 
	C245.082291,216.292099 282.608643,185.065399 326.201294,161.161499 
	C365.946228,139.367493 408.037903,124.202805 452.817078,116.911568 
	C467.730316,114.483299 482.751404,113.033798 497.933624,112.455917 
	C544.112244,110.698235 589.286743,116.111519 633.028809,130.943451 
	C671.206116,143.888504 706.740051,162.013824 736.106628,190.357574 
	C755.686340,209.255295 769.415710,231.718246 775.605042,258.535675 
	C789.223816,317.543427 755.777161,376.211426 697.984375,395.299835 
	C662.409119,407.050079 627.256409,405.319611 592.122559,393.869202 
	C582.458496,390.719635 572.879333,387.348267 563.992249,382.297638 
	C560.507324,380.317108 557.171753,378.165558 554.255920,375.358917 
	C544.406250,365.878113 544.284058,353.167877 554.048340,343.575104 
	C555.921997,341.734314 557.871582,339.970734 560.521240,337.480743 
	C548.622375,337.951263 537.935547,340.172882 527.328125,342.717682 
	C477.390411,354.698059 445.999390,387.249695 427.294067,433.568512 
	C420.149719,451.259521 416.684662,469.775116 415.149872,488.840881 
	C412.472412,522.101196 418.318878,553.717407 431.502319,584.560730 
M464.420288,718.136292 
	C422.553406,690.583740 384.988922,658.123352 352.388611,619.989929 
	C348.391113,615.313904 343.942566,610.975159 345.468079,603.842163 
	C345.822510,602.184814 344.982300,600.248108 344.597137,598.460327 
	C341.412811,583.678101 325.238495,571.344727 311.528229,573.751953 
	C307.073700,574.533997 305.928375,573.146179 305.537720,569.185242 
	C303.475311,548.273743 297.277588,528.575989 288.344391,509.593262 
	C284.954163,502.389130 282.522156,494.704865 280.014526,487.120026 
	C272.424286,464.161407 267.887451,440.555817 264.414246,416.634583 
	C261.428558,396.071320 261.653961,375.485748 261.656097,354.863708 
	C261.657074,345.626038 268.488068,338.437012 277.262604,337.729889 
	C285.675720,337.051910 293.398804,343.050018 295.253204,351.813141 
	C295.906616,354.900909 296.173615,358.015167 296.083862,361.221985 
	C295.604065,378.374817 296.183777,395.505554 298.493774,412.517548 
	C302.427338,441.486176 310.300110,469.423279 321.110443,496.556122 
	C341.708679,548.255615 372.462311,593.136841 412.099030,632.049255 
	C413.434143,633.359985 414.705292,634.885437 416.846405,635.130981 
	C417.144226,633.167297 416.299866,631.898315 415.556427,630.615356 
	C410.546295,621.969299 405.219482,613.491516 400.551788,604.664917 
	C372.548950,551.711731 354.524628,496.286560 359.694244,435.338715 
	C361.125336,418.466919 364.840210,402.181976 373.545380,387.321198 
	C380.909729,374.749298 391.689697,369.053131 406.103577,370.789642 
	C418.029388,372.226440 427.274658,367.721619 434.541809,358.695679 
	C442.682129,348.585236 444.373047,332.292969 432.375671,325.760315 
	C430.993164,325.007507 429.973846,323.457275 428.988098,322.127075 
	C421.315155,311.772797 426.631226,297.438812 439.187622,294.683075 
	C445.367798,293.326752 451.072723,295.011169 456.463806,297.927673 
	C475.828033,308.403442 496.177246,313.403900 518.397217,310.829865 
	C551.118591,307.039246 577.260803,293.689209 591.958069,262.659180 
	C593.871399,258.619537 596.563782,258.188019 599.972351,260.438202 
	C601.624146,261.528687 603.198059,262.848511 604.506409,264.330139 
	C613.665283,274.701752 618.607788,287.008118 619.200928,300.663452 
	C620.427856,328.908295 604.877930,349.657715 577.654175,357.130615 
	C575.663574,357.677032 573.418274,357.744995 571.935852,359.595795 
	C573.356384,362.525452 575.854919,362.447174 578.367981,362.733673 
	C589.594299,364.013458 600.965515,363.224945 612.129272,365.733978 
	C628.656921,369.448425 645.354614,370.611603 662.037048,366.565155 
	C696.067200,358.310883 720.586914,327.172729 719.612305,293.558350 
	C719.403015,286.340088 717.456970,279.440308 715.389832,272.594696 
	C714.417725,269.375610 715.179626,266.899414 718.067139,265.394836 
	C720.839172,263.950470 723.536377,264.521942 725.898865,266.642731 
	C727.463867,268.047607 728.127502,269.937653 728.827271,271.798950 
	C734.008423,285.579590 734.591125,299.705322 731.749878,314.026215 
	C728.983398,327.970154 722.755310,340.321808 714.145447,351.623993 
	C715.547668,350.790314 716.815430,349.819916 718.023621,348.780334 
	C742.787109,327.472260 752.150391,286.923004 739.748291,255.859695 
	C729.369812,229.864868 710.718506,211.012085 687.905762,196.001404 
	C644.589172,167.499146 596.619141,152.066544 545.189514,147.544510 
	C515.589294,144.941864 486.041840,146.102432 456.642395,151.321686 
	C412.332916,159.187912 371.063873,175.006531 332.453369,197.828827 
	C285.081909,225.829727 246.498810,263.396088 214.939117,308.210907 
	C181.099670,356.263031 160.237320,409.615265 151.548462,467.719452 
	C150.826370,472.548248 150.236801,477.219513 153.002518,482.110962 
	C159.977707,494.447357 167.075638,506.701813 175.209244,518.293091 
	C204.640579,560.235657 239.183105,597.616455 277.506866,631.513977 
	C319.309509,668.488647 364.454620,700.863342 412.631836,729.058105 
	C464.736298,759.551331 519.336304,784.314209 577.125671,801.971252 
	C603.761169,810.109497 630.832947,815.882629 658.542358,818.872070 
	C674.112732,820.551941 689.745972,821.042419 705.314697,822.308350 
	C716.482910,823.216553 725.979126,821.458923 734.486023,814.213135 
	C737.786011,811.402283 741.963623,809.620544 744.824707,805.890625 
	C744.055542,805.637146 743.752747,805.454895 743.446838,805.449402 
	C740.281128,805.393005 737.113831,805.292664 733.949036,805.339966 
	C693.698853,805.940796 654.281433,799.984802 615.810181,788.663269 
	C562.103882,772.858337 511.923218,749.144775 464.420288,718.136292 
M769.531372,642.132935 
	C773.194824,631.044678 775.644714,619.680664 777.409851,608.147522 
	C777.804016,605.572083 777.362610,603.922363 775.026306,602.291687 
	C768.226440,597.545593 768.347595,589.419678 775.288574,585.165955 
	C777.778381,583.640076 778.879272,582.013611 778.649048,579.178650 
	C778.426636,576.441223 777.417969,574.838257 774.607727,573.705383 
	C768.017090,571.048828 766.203735,562.671814 771.519470,558.225037 
	C775.100220,555.229675 775.074402,552.450317 773.979553,548.642639 
	C768.595215,529.916138 762.420227,511.445343 756.224976,492.979279 
	C753.866577,485.949799 751.553467,478.905090 749.228943,471.895233 
	C746.526062,472.578796 745.733887,474.359009 744.679504,475.794128 
	C740.240967,481.834930 735.898865,487.946594 731.460815,493.987762 
	C724.791443,503.066406 722.354675,503.886841 711.583679,500.667084 
	C695.179077,495.763367 678.592651,494.924286 661.764099,498.124054 
	C643.231506,501.647919 627.340454,510.430634 613.453857,522.839111 
	C608.483154,527.280640 604.161011,527.230469 598.625488,524.351685 
	C588.129517,518.893188 577.104675,514.563660 566.087463,510.260437 
	C563.918762,509.413361 561.546204,508.351349 559.474121,510.051483 
	C557.565186,511.617767 558.945496,513.741821 559.233398,515.660950 
	C561.213867,528.865601 564.466003,541.811768 568.909119,554.334717 
	C578.555115,581.521912 579.638611,608.835388 572.404846,636.704285 
	C569.686768,647.175781 563.559082,653.044739 552.865967,654.494385 
	C533.344177,657.140869 514.908630,662.973267 498.148865,673.594971 
	C492.553589,677.141052 487.429932,681.232361 482.159882,685.867676 
	C488.502899,691.704651 495.291809,695.601929 501.960205,699.588196 
	C544.640381,725.101929 589.777527,744.966736 637.827820,757.971130 
	C659.022644,763.707397 680.090149,768.277710 702.550354,763.618042 
	C727.070190,758.531006 752.042908,755.647400 776.787170,751.612793 
	C787.746277,749.825867 798.959473,748.983704 809.371033,744.745117 
	C817.330078,741.504944 821.511475,734.109314 820.852417,725.550720 
	C820.285461,718.188171 814.228699,711.584961 806.512573,709.346924 
	C800.793030,707.687866 795.241394,708.701843 789.735962,709.863892 
	C761.871216,715.745850 733.938660,719.070801 705.584778,713.377075 
	C694.298462,711.110657 683.070435,708.703247 672.875122,703.091858 
	C665.737793,699.163574 662.309326,691.510315 663.803772,683.602600 
	C665.095703,676.767151 670.263367,672.262024 678.163635,670.990967 
	C681.978882,670.377197 685.540283,671.640320 688.834045,673.011597 
	C707.492493,680.779053 726.978882,683.103638 746.987976,682.767029 
	C750.650940,682.705322 752.813721,681.539490 754.465698,678.323914 
	C760.338379,666.893188 765.339844,655.115295 769.531372,642.132935 
M627.420471,868.243408 
	C638.844360,865.988831 649.131226,860.865906 659.538757,855.798828 
	C555.058472,842.299072 461.122864,801.490417 372.848846,746.446777 
	C284.616089,691.428894 207.135056,624.305237 145.942291,539.194641 
	C145.352417,541.311584 145.239868,543.104370 145.370529,544.879272 
	C146.272812,557.136963 147.574371,569.349976 149.300751,581.523315 
	C152.296204,602.644958 157.048721,623.279480 164.345230,643.398560 
	C167.296173,651.535400 172.104980,657.277954 178.938934,662.180725 
	C193.258408,672.453796 207.868607,681.588501 225.912994,684.129517 
	C235.547241,685.486206 241.587051,693.642029 241.261459,702.377930 
	C240.928268,711.317688 234.620728,717.923706 224.863739,719.703796 
	C220.932785,720.420959 217.301727,719.302612 213.596634,718.345215 
	C208.242325,716.961731 203.330521,714.059387 196.331650,713.145325 
	C221.526749,750.203308 249.775955,782.680481 284.650635,809.092834 
	C319.591400,835.555115 357.859589,855.682434 399.309479,870.011230 
	C430.778351,880.889648 508.922089,892.187805 527.162476,887.550110 
	C512.677673,884.152344 499.040344,879.921204 485.498352,875.368103 
	C458.905731,866.427002 433.106232,855.746277 409.340973,840.619873 
	C395.517242,831.821045 382.435272,822.049255 371.623169,809.636719 
	C364.326599,801.260132 365.007263,790.045776 372.673889,783.228882 
	C380.367767,776.387756 391.651550,777.028076 398.931580,785.702942 
	C411.432129,800.598450 427.238953,810.949402 444.159485,819.733582 
	C501.345856,849.421448 562.704468,863.609375 627.420471,868.243408 
M809.722168,574.164124 
	C811.330994,577.156921 808.141357,582.514282 814.928894,583.070618 
	C820.563965,583.532471 823.406921,587.342285 823.543701,592.345215 
	C823.681946,597.401855 820.667480,601.470154 815.117554,602.448792 
	C811.003296,603.174255 809.628357,605.328003 809.354736,609.102966 
	C808.231934,624.594116 804.509338,639.548523 799.905273,654.324219 
	C797.696411,661.412964 794.747742,668.234863 791.446106,676.302856 
	C798.740417,674.480957 805.746521,678.418762 810.436157,670.071167 
	C823.149292,647.441589 834.463806,624.342163 837.155518,598.133057 
	C838.984375,580.325439 837.261719,562.807312 828.091187,546.920959 
	C822.404602,537.069702 813.990967,530.570801 802.068481,528.598694 
	C802.051392,534.024414 804.276855,538.296021 804.784851,542.865662 
	C805.189636,546.506592 806.728394,547.836243 810.517639,547.833862 
	C815.007690,547.831055 817.782898,550.824585 818.986877,555.051331 
	C820.221069,559.384033 818.184875,562.509155 814.743469,564.815857 
	C812.976807,566.000000 810.965271,566.818848 809.000793,567.835632 
	C809.173706,569.764038 809.335388,571.567871 809.722168,574.164124 
z"/>
<path fill="#000000" opacity="1.000000" stroke="none" 
	d="
M265.690552,507.331543 
	C270.296692,514.946594 275.590424,521.565918 281.388214,527.815674 
	C285.424561,532.166748 288.517487,536.916443 288.456879,543.288818 
	C288.394501,549.846863 286.093597,555.119751 280.331757,558.282227 
	C274.124878,561.688904 267.603912,562.196777 261.399170,558.126038 
	C259.056488,556.589050 256.798157,554.743408 254.968399,552.633423 
	C240.763824,536.252991 229.810699,517.828430 221.448242,497.885376 
	C217.809158,489.206787 219.773758,480.139160 225.619949,475.386810 
	C235.148453,467.641083 248.113831,470.741547 253.472595,482.348358 
	C257.310913,490.661896 260.606018,499.226440 265.690552,507.331543 
z"/>
<path fill="#000000" opacity="1.000000" stroke="none" 
	d="
M315.619446,387.331177 
	C328.446381,380.494568 343.865234,387.694580 346.646088,401.647461 
	C348.509918,410.999268 343.542999,421.358612 334.720947,424.960541 
	C324.496857,429.134888 312.975708,425.754364 308.001892,417.120667 
	C301.840271,406.425171 304.816284,394.323090 315.619446,387.331177 
z"/>
<path fill="#000000" opacity="1.000000" stroke="none" 
	d="
M347.678162,323.684540 
	C347.512146,310.722565 353.638214,302.412354 364.266083,300.701752 
	C375.388947,298.911438 385.097443,304.777191 388.365845,315.262451 
	C391.709961,325.990601 385.819427,337.273193 374.866364,341.118866 
	C364.309875,344.825348 353.351288,339.844391 349.190704,329.377075 
	C348.522736,327.696594 348.191223,325.882324 347.678162,323.684540 
z"/>
<path fill="#000000" opacity="1.000000" stroke="none" 
	d="
M314.902191,582.700806 
	C330.751343,584.631409 339.823853,598.440430 334.309662,611.573364 
	C330.564392,620.493347 319.880737,626.116333 310.625061,624.039062 
	C300.825836,621.839783 293.527496,612.870239 293.705292,603.244873 
	C293.895569,592.941101 300.775146,584.848999 310.985046,582.975281 
	C312.122559,582.766541 313.301575,582.784180 314.902191,582.700806 
z"/>
<path fill="#000000" opacity="1.000000" stroke="none" 
	d="
M230.465149,432.893524 
	C234.852600,445.266663 228.012634,456.631744 216.597488,459.828247 
	C205.426224,462.956451 194.302399,456.697479 191.224884,445.583374 
	C188.221741,434.737854 194.149567,423.435791 204.656891,419.973846 
	C215.643082,416.354126 225.812088,421.309753 230.465149,432.893524 
z"/>
<path fill="#000000" opacity="1.000000" stroke="none" 
	d="
M701.580139,575.909668 
	C707.063843,570.017090 713.247681,568.538696 719.323486,571.403503 
	C725.130432,574.141541 726.949829,579.137512 724.460266,585.509521 
	C722.156677,591.405884 723.739441,597.883545 728.245972,601.238525 
	C730.608032,602.997070 733.236755,603.130371 735.850464,602.306030 
	C738.313171,601.529358 738.602905,599.353271 738.709351,597.035461 
	C739.076721,589.037415 743.195740,584.342224 749.296021,584.761536 
	C756.108398,585.229797 760.876831,591.772888 760.103027,599.590515 
	C758.165955,619.162415 741.430725,629.114624 723.347656,621.453491 
	C722.740112,621.196106 722.105103,621.003540 720.933594,620.584045 
	C716.802673,626.953613 710.468567,630.264221 703.117981,631.907898 
	C689.517639,634.949097 675.047241,625.846252 672.164917,612.419800 
	C670.941895,606.722900 673.240234,601.364441 678.027405,598.751648 
	C683.561035,595.731506 688.992493,597.457031 691.844971,603.101685 
	C693.571838,606.518860 694.080872,611.259644 699.582581,610.812927 
	C703.254761,610.514893 705.717041,608.288269 707.189758,605.089844 
	C708.978943,601.204163 707.617554,593.917480 704.785034,591.037048 
	C698.743225,584.893066 698.256104,582.792053 701.580139,575.909668 
z"/>
<path fill="#000000" opacity="1.000000" stroke="none" 
	d="
M660.402466,579.277161 
	C651.373230,576.590332 646.336182,570.721619 646.104309,563.080505 
	C645.872070,555.427002 650.486450,548.329956 657.425964,545.911255 
	C664.227600,543.540527 670.480957,545.123352 675.345642,550.046204 
	C680.209839,554.968506 681.639587,561.280579 679.320923,568.026611 
	C676.965271,574.880310 671.827515,578.355286 664.818298,579.270447 
	C663.510010,579.441284 662.161987,579.308411 660.402466,579.277161 
z"/>
<path fill="#000000" opacity="1.000000" stroke="none" 
	d="
M753.228149,540.129456 
	C756.492126,547.495422 755.342102,553.931702 750.072632,559.276428 
	C745.593567,563.819519 739.841431,565.348938 733.574707,563.739868 
	C726.148254,561.833008 721.291016,555.295898 721.252441,547.556885 
	C721.211853,539.423889 726.205688,532.874451 734.117981,530.683411 
	C741.516052,528.634766 748.544800,532.000000 753.228149,540.129456 
z"/>
<path fill="#000000" opacity="1.000000" stroke="none" 
	d="
M635.030762,624.349487 
	C624.898560,627.173279 615.139404,629.883728 605.376953,632.582275 
	C601.070862,633.772583 597.765320,632.012268 595.497070,628.581055 
	C593.090576,624.940613 593.213257,621.044250 595.720459,617.343567 
	C597.229614,615.115845 599.596069,614.238953 601.992310,613.559631 
	C610.619263,611.113831 619.244995,608.653320 627.928223,606.420288 
	C633.464783,604.996460 638.145081,607.160767 640.040100,611.581238 
	C642.151794,616.507446 640.628540,620.662476 635.030762,624.349487 
z"/>
<path fill="#000000" opacity="1.000000" stroke="none" 
	d="
M602.086060,577.634583 
	C610.042908,577.398865 617.530762,576.877441 625.007019,577.009521 
	C632.642273,577.144470 637.316223,583.392578 634.818848,589.628967 
	C633.420349,593.121155 630.914124,595.351135 626.856995,595.354553 
	C617.873962,595.362183 608.942444,596.164490 600.009705,597.047913 
	C593.813660,597.660583 589.235657,593.977600 588.768311,588.351868 
	C588.269775,582.349731 592.219177,578.051697 598.616577,577.661865 
	C599.611816,577.601135 600.613342,577.641907 602.086060,577.634583 
z"/>
<path fill="#000000" opacity="1.000000" stroke="none" 
	d="
M327.822510,777.555542 
	C333.119812,793.090942 322.497437,805.880981 306.845764,802.220215 
	C289.705139,798.211182 274.922821,789.250000 262.571289,776.584473 
	C257.817902,771.710205 252.835953,766.967163 249.331177,761.049988 
	C242.745483,749.931335 248.171539,736.922302 260.614166,734.038879 
	C267.692078,732.398682 273.410278,735.198303 277.798737,740.569031 
	C284.138550,748.327942 290.583588,755.861511 299.523499,760.856995 
	C304.050079,763.386414 308.675201,765.545471 313.665680,766.944153 
	C319.604462,768.608521 324.868652,771.224304 327.822510,777.555542 
z"/>
<style>
        path { fill: #000; }
        @media (prefers-color-scheme: dark) {
            path { fill: #FFF; }
        }
        </style>
    </symbol>
  </defs>
</svg>