<svg version="1.1" id="Layer_1"
	xmlns="http://www.w3.org/2000/svg"
	xmlns:xlink="http://www.w3.org/1999/xlink" x="0px" y="0px" width="100%" viewBox="0 0 496 496" enable-background="new 0 0 496 496" xml:space="preserve">
	<defs>
		<symbol id="brand" viewBox="0 0 496 496">
			<path fill="#000000" opacity="1.000000" stroke="none" d="
M225.468658,497.000000 
	C215.189163,494.388580 205.006653,493.909149 195.121597,491.569611 
	C142.672256,479.156403 98.152435,453.427002 62.328308,413.001373 
	C35.241882,382.435669 17.274611,347.190399 8.825625,307.212158 
	C2.526624,277.407043 2.133057,247.512497 7.333505,217.425980 
	C13.298808,182.914505 24.291491,150.332291 43.004528,120.614349 
	C77.040977,66.561501 124.333595,29.830502 185.795776,11.528758 
	C215.300507,2.743061 245.318222,0.477115 275.734894,3.776746 
	C313.892456,7.916114 349.213135,19.990488 379.326782,44.492973 
	C399.207703,60.669422 411.555847,81.439934 411.734833,107.702614 
	C411.942047,138.110321 394.255402,163.270920 366.184235,174.300018 
	C336.131378,186.107727 307.267822,181.226791 279.418549,167.167709 
	C268.343567,161.576767 267.583160,153.999969 275.711914,141.488907 
	C271.064697,140.367874 266.712646,141.818344 262.463989,142.677704 
	C228.136078,149.621033 206.520782,171.197098 195.785736,203.507233 
	C180.554764,249.349121 192.967377,289.951324 221.648773,326.903687 
	C224.336533,330.366516 226.499557,330.624603 230.208420,328.014221 
	C239.442444,321.515076 249.827286,317.430145 260.999359,315.616394 
	C265.288422,314.920044 267.635284,313.298126 268.220001,308.469025 
	C269.287323,299.654938 268.289825,291.221558 265.623413,282.874237 
	C260.742767,267.595245 256.723999,252.220505 257.596344,235.901611 
	C258.150085,225.542801 262.653992,221.554108 273.032898,223.187454 
	C282.630768,224.697891 291.834106,227.558533 300.799805,231.200134 
	C303.320709,232.224045 305.353394,232.345184 307.747467,230.697083 
	C325.505768,218.472000 345.206696,214.846741 366.278351,218.122955 
	C369.310242,218.594345 370.919525,217.549347 372.605743,215.464951 
	C377.111969,209.894562 381.690765,204.376221 387.380951,199.926971 
	C394.186676,194.605530 400.451843,195.515244 405.127899,202.827545 
	C410.918213,211.882324 414.564453,221.910065 417.564331,232.164780 
	C418.482727,235.304306 419.942871,237.034256 423.503021,236.684799 
	C442.496948,234.820465 459.045197,250.645493 464.352509,268.566925 
	C473.087921,298.064026 466.433472,324.759369 449.508484,349.561829 
	C448.578644,350.924438 447.610474,352.260925 446.523804,353.803040 
	C450.217926,358.402496 454.177216,362.662354 455.878204,368.442535 
	C459.348816,380.236053 457.019928,390.866669 448.331818,399.233032 
	C442.903656,404.460144 438.264557,410.260803 433.273956,415.799316 
	C401.045898,451.565857 361.160034,474.802460 315.273682,488.373352 
	C301.003967,492.593597 286.334167,494.503906 271.346313,496.830444 
	C255.979111,497.000000 240.958206,497.000000 225.468658,497.000000 
M287.883545,108.390839 
	C291.373230,104.771301 294.351715,100.816483 296.496033,96.217682 
	C298.741333,91.402328 301.017334,91.019356 304.723572,94.843002 
	C321.337769,111.983589 316.691895,145.003143 290.331604,152.146667 
	C288.852570,152.547485 286.954132,152.261246 286.294159,154.249222 
	C287.376984,155.383133 288.675018,155.659912 290.029968,155.625992 
	C298.910004,155.403748 307.553406,157.032501 316.277802,158.456070 
	C329.952545,160.687408 343.207184,159.148468 355.091003,151.244629 
	C367.737640,142.833420 380.270172,124.111420 373.308472,102.921280 
	C372.415405,100.203003 371.660034,96.915184 375.562958,95.937965 
	C379.037506,95.068001 380.493439,97.651772 381.514679,100.594009 
	C383.222107,105.513268 384.318634,110.484665 384.297394,115.736023 
	C384.255341,126.138298 381.064636,135.594040 375.525269,144.857727 
	C377.717896,144.012955 378.591217,142.585663 379.609131,141.349030 
	C393.707336,124.221191 394.510162,98.309753 381.838226,79.285812 
	C370.404327,62.120529 353.901337,51.357407 335.818878,42.792473 
	C294.306488,23.129721 250.919052,19.032953 206.245865,28.804008 
	C155.262695,39.955204 113.513657,66.369781 80.135323,106.321671 
	C53.578659,138.108429 36.880302,174.453461 29.694069,215.180496 
	C28.729565,220.646713 28.273680,225.859329 31.467127,231.450745 
	C48.599636,261.448151 71.087723,287.052521 96.045372,310.511932 
	C138.164963,350.103027 185.847595,381.506348 238.695862,404.976105 
	C280.326752,423.464233 323.411743,435.677765 369.439758,435.981964 
	C378.085999,436.039093 383.534332,431.719788 389.800018,426.941711 
	C387.416290,425.849915 385.412354,426.302277 383.475922,426.255493 
	C371.822845,425.973663 360.187622,425.394226 348.640167,423.748688 
	C320.231781,419.700470 293.225067,410.959503 267.229523,398.995331 
	C222.123718,378.235840 182.666336,349.869141 150.379135,311.887970 
	C148.158615,309.275818 146.742325,306.645874 146.612381,302.997681 
	C146.229095,292.237366 137.317307,284.172455 126.409607,284.639465 
	C123.674500,284.756592 123.075195,283.818237 122.551384,281.483459 
	C120.699486,273.229095 120.467842,264.604797 116.838516,256.751099 
	C106.491295,234.360107 100.061790,210.878494 97.080162,186.398117 
	C95.625488,174.454544 95.361702,162.486404 95.776596,150.506332 
	C95.975502,144.762650 100.253105,140.623398 105.489738,140.143600 
	C110.401421,139.693588 114.815369,143.011292 116.604897,148.353760 
	C117.314461,150.472061 117.303215,152.614334 117.251007,154.776123 
	C117.005531,164.940399 117.092232,175.128021 118.565948,185.175781 
	C123.822708,221.015884 136.662857,253.925323 157.475983,283.644684 
	C167.216156,297.552765 177.623062,310.892334 190.532974,322.227570 
	C190.742004,321.794495 190.901993,321.613678 190.861267,321.523041 
	C190.592300,320.924652 190.319672,320.321350 189.976486,319.763794 
	C171.235352,289.316925 157.675720,257.025757 155.185959,220.886002 
	C154.016129,203.905396 155.412064,187.260818 163.446930,171.806961 
	C168.018265,163.014664 175.119278,159.025818 185.187256,160.372314 
	C192.368530,161.332733 199.949799,156.806366 203.165222,150.140549 
	C206.490417,143.247177 205.585007,139.162811 199.248871,132.473724 
	C195.431946,128.444183 194.706223,123.216843 197.334747,118.686401 
	C199.682327,114.640175 205.257202,112.511406 210.529648,114.218704 
	C214.305008,115.441208 217.861206,117.360924 221.477997,119.049255 
	C242.264542,128.752441 270.769409,124.369461 287.883545,108.390839 
M308.421692,255.201721 
	C306.061951,256.844818 303.964996,255.522171 301.847992,254.598495 
	C295.590729,251.868362 289.348938,249.102798 283.084442,246.389481 
	C281.449554,245.681335 279.790619,244.634644 278.041229,245.874039 
	C277.295105,246.910797 277.681946,247.857666 277.827637,248.845230 
	C279.094269,257.433014 281.326843,265.794189 284.138885,273.972015 
	C289.486237,289.522644 290.291260,305.204132 286.246521,321.143341 
	C283.903748,330.375610 281.121002,332.929565 271.694244,334.310333 
	C261.197510,335.847809 251.284210,339.080780 242.172943,344.565704 
	C238.248322,346.928284 234.398117,349.434875 230.834213,353.488098 
	C231.847977,354.101654 232.434036,354.430298 232.993805,354.798889 
	C265.032440,375.895111 299.704224,390.920288 337.098846,399.462921 
	C343.329285,400.886261 349.629944,402.340424 356.345917,401.187653 
	C372.901093,398.346130 389.565948,396.150055 406.162476,393.540253 
	C413.555054,392.377777 420.975464,391.188782 428.223999,389.375305 
	C434.623077,387.774414 437.850159,382.160553 436.801025,376.044891 
	C435.929749,370.965912 431.118683,367.221252 425.099426,367.184052 
	C422.620728,367.168762 420.097504,367.391510 417.666046,367.869659 
	C404.580048,370.443085 391.494263,372.724670 378.049835,371.366180 
	C367.734894,370.323883 357.564423,368.723511 348.115082,364.203125 
	C342.937103,361.726044 340.252594,356.893402 341.056213,352.160797 
	C342.171936,345.590210 348.183655,342.016083 355.100342,344.441589 
	C366.195435,348.332367 377.440521,350.749908 389.270630,350.831726 
	C393.859283,350.863434 396.271179,349.165741 398.105011,345.286865 
	C403.905426,333.018066 408.079407,320.258789 410.404816,306.883392 
	C410.787079,304.684479 410.235840,303.238403 408.563202,301.650055 
	C405.027588,298.292664 405.000549,294.693359 408.611237,291.850006 
	C412.430756,288.842224 411.867920,286.682861 408.196136,284.237579 
	C404.663177,281.884705 403.787811,278.456116 406.592529,275.305298 
	C408.888489,272.726013 408.877594,270.431122 407.952118,267.566040 
	C403.551636,253.942978 399.210297,240.300827 394.816620,226.675537 
	C394.426086,225.464417 394.192963,224.020981 391.924988,223.650314 
	C388.932922,227.688858 385.715912,231.892776 382.651581,236.205170 
	C379.445770,240.716675 375.731628,242.017197 370.168213,240.161392 
	C357.629456,235.978775 344.993500,236.561462 332.425629,240.696869 
	C323.516083,243.628540 316.148254,248.951385 308.421692,255.201721 
M332.789825,459.458923 
	C334.067719,458.599670 335.959930,458.559784 336.862366,456.379059 
	C273.648590,447.949402 216.883972,423.244293 163.571304,390.024170 
	C110.228523,356.785309 63.427799,316.084595 25.826269,265.113800 
	C27.094908,288.255585 29.651592,310.810883 38.990746,332.012604 
	C39.625134,333.452759 40.756180,334.399506 41.928715,335.342102 
	C51.757931,343.244080 62.119846,349.938873 74.996544,351.925812 
	C80.561172,352.784485 83.652336,357.516541 83.440041,363.237976 
	C83.238731,368.663269 79.902893,372.354675 74.343620,373.504242 
	C70.746643,374.248047 67.448380,373.233673 64.105888,372.176819 
	C62.035904,371.522339 60.107800,370.152649 57.562660,370.334534 
	C68.144852,393.322418 108.170807,429.987183 143.267380,449.079254 
	C176.325378,467.062378 230.789261,480.043152 256.390076,475.905762 
	C237.421753,470.887177 219.160507,464.784302 201.762711,456.312317 
	C187.587173,449.409393 174.459610,440.967651 163.660995,429.331055 
	C158.387939,423.648804 158.450562,417.002686 163.380020,412.412567 
	C167.826370,408.272339 175.176895,408.300049 179.533966,413.341339 
	C191.241486,426.887390 206.629410,434.697693 222.557159,441.642517 
	C248.230301,452.836517 275.250610,458.996552 302.930206,462.663391 
	C312.955750,463.991577 322.804565,464.896271 332.789825,459.458923 
M438.443359,264.069489 
	C435.043335,261.035858 431.757874,257.760193 425.967133,258.016235 
	C427.720673,262.664917 425.983765,268.166138 433.201660,269.251190 
	C437.160095,269.846252 437.320099,276.123169 433.829865,279.016876 
	C428.951538,283.061462 429.463867,287.679596 435.171661,290.348694 
	C437.504669,291.439697 438.949127,293.111938 439.154480,295.642365 
	C439.363464,298.217377 438.163513,300.790070 435.902069,301.315063 
	C430.404633,302.591339 430.372406,306.469452 430.052795,310.787140 
	C429.771973,314.580933 428.867249,318.346436 428.028656,322.077362 
	C426.212799,330.156158 423.370087,337.931519 420.150940,346.145020 
	C424.568451,346.409119 428.356201,347.115417 430.764252,342.940582 
	C437.026031,332.084625 442.971527,320.999329 445.407990,308.617767 
	C448.421143,293.305573 448.987640,278.096191 438.443359,264.069489 
z"/>
			<path fill="#000000" opacity="1.000000" stroke="none" d="
M77.924606,251.982178 
	C75.251892,246.786453 72.372307,242.093979 70.791176,236.792206 
	C68.875359,230.368225 71.352180,224.720520 77.091202,222.435867 
	C82.523636,220.273270 88.428749,222.528992 91.135803,228.481659 
	C94.233078,235.292374 97.054352,242.219971 101.601395,248.230698 
	C103.902977,251.273178 106.425858,254.149887 108.883102,257.072601 
	C113.769493,262.884583 113.810356,269.676270 108.956223,274.010468 
	C103.976265,278.457031 97.386665,277.863922 92.168030,272.217285 
	C86.616913,266.210876 82.176735,259.375519 77.924606,251.982178 
z"/>
			<path fill="#000000" opacity="1.000000" stroke="none" d="
M128.242355,193.014221 
	C122.341614,188.044479 120.787796,182.560501 123.289909,176.519760 
	C125.284683,171.703842 130.814606,168.396271 136.109985,168.851807 
	C142.020508,169.360260 146.741272,173.395432 147.992477,179.218399 
	C149.105392,184.397949 147.509979,188.906265 143.426910,192.094650 
	C138.887329,195.639496 133.778519,196.215347 128.242355,193.014221 
z"/>
			<path fill="#000000" opacity="1.000000" stroke="none" d="
M158.492218,143.113037 
	C150.812408,140.396133 147.207016,134.962769 148.342575,128.354187 
	C149.506271,121.581741 154.268417,117.617378 161.168350,117.677055 
	C168.445480,117.740013 173.868805,122.879066 174.188934,130.015152 
	C174.467651,136.227966 169.312195,142.277985 162.872452,143.181259 
	C161.573776,143.363403 160.226379,143.198166 158.492218,143.113037 
z"/>
			<path fill="#000000" opacity="1.000000" stroke="none" d="
M115.913132,299.088104 
	C118.769760,292.174561 124.287872,288.774750 130.334457,289.895813 
	C136.433121,291.026489 140.821808,295.782501 141.281677,301.759247 
	C141.843613,309.062836 137.039352,314.752930 129.836060,315.315308 
	C122.104584,315.918945 116.002838,310.850830 115.591431,303.416077 
	C115.518852,302.104431 115.731995,300.776947 115.913132,299.088104 
z"/>
			<path fill="#000000" opacity="1.000000" stroke="none" d="
M63.356804,189.843567 
	C70.975388,189.869659 75.493706,192.823608 77.185722,198.553680 
	C78.994797,204.680191 77.409241,209.814133 72.700104,213.077744 
	C67.944115,216.373871 61.753349,216.364532 57.354931,213.049835 
	C52.992405,209.762192 52.000832,205.177063 52.791363,200.159882 
	C53.694874,194.425674 57.423290,191.208786 63.356804,189.843567 
z"/>
			<path fill="#000000" opacity="1.000000" stroke="none" d="
M392.876556,313.210815 
	C388.931610,315.795288 384.850861,315.984314 380.985992,314.891510 
	C377.770996,313.982452 375.768127,314.270844 373.092651,316.598022 
	C364.763763,323.842712 350.963928,320.426239 347.115265,310.511169 
	C345.689148,306.837189 345.709015,303.246338 348.864594,300.407074 
	C352.178467,297.425415 356.539673,298.360291 358.862183,302.535248 
	C360.090668,304.743683 360.935730,307.556274 364.209412,306.452637 
	C367.644531,305.294586 368.163086,302.345306 367.793304,299.079437 
	C367.551270,296.942200 366.396179,295.383270 364.995605,293.920532 
	C362.386047,291.195251 362.205078,288.138306 364.563110,285.382721 
	C367.243408,282.250610 370.774536,280.844025 374.866058,282.633789 
	C378.347443,284.156647 380.048706,286.905640 379.037933,290.686371 
	C378.331085,293.330078 377.682739,295.838501 378.999847,298.431488 
	C380.067261,300.532867 381.623840,301.897125 384.135651,301.612305 
	C386.625580,301.329956 386.548584,299.343750 386.847015,297.511688 
	C387.470032,293.687408 389.290710,290.696594 393.627991,291.039032 
	C397.919983,291.377869 400.070526,294.319183 400.263062,298.467651 
	C400.544464,304.530640 398.437500,309.558899 392.876556,313.210815 
z"/>
			<path fill="#000000" opacity="1.000000" stroke="none" d="
M349.761536,283.637512 
	C346.113800,287.799927 341.990356,289.329010 337.058502,287.295166 
	C332.791565,285.535553 330.666931,282.217743 330.665527,277.545197 
	C330.664093,272.693085 332.779083,269.203735 337.308594,267.432098 
	C341.635742,265.739594 345.559387,266.890625 348.765167,270.018402 
	C352.141968,273.313049 352.453705,278.258270 349.761536,283.637512 
z"/>
			<path fill="#000000" opacity="1.000000" stroke="none" d="
M384.594727,278.756653 
	C377.104828,275.619049 374.424927,269.759644 377.364990,263.643005 
	C379.956940,258.250610 386.275024,256.200592 391.724854,258.983673 
	C395.659912,260.993195 398.136078,266.480957 397.068512,270.826508 
	C395.795715,276.007385 391.403564,278.931274 384.594727,278.756653 
z"/>
			<path fill="#000000" opacity="1.000000" stroke="none" d="
M298.757477,314.096252 
	C300.953644,308.530243 319.882904,302.005920 324.644897,304.756500 
	C326.778015,305.988647 327.424988,307.882660 327.342468,310.212036 
	C327.258301,312.588226 326.359863,314.560944 324.057831,315.278931 
	C317.897583,317.200348 311.747040,319.269135 305.447937,320.588348 
	C301.210419,321.475800 299.144745,318.564392 298.757477,314.096252 
z"/>
			<path fill="#000000" opacity="1.000000" stroke="none" d="
M304.185852,286.652527 
	C308.447784,286.496796 312.247467,286.322083 316.048737,286.195679 
	C321.057922,286.029053 324.182037,288.298737 324.246857,292.104675 
	C324.308685,295.735840 321.547241,297.989716 316.716003,298.205688 
	C312.750305,298.382996 308.769257,298.366333 304.819305,298.712738 
	C299.206787,299.204956 296.164551,297.607361 295.729218,293.595612 
	C295.247284,289.154694 297.726929,287.002136 304.185852,286.652527 
z"/>
			<path fill="#000000" opacity="1.000000" stroke="none" d="
M111.480453,392.524750 
	C116.439285,397.461090 122.178802,400.354980 128.391006,402.500977 
	C135.609406,404.994537 139.058548,410.408569 137.380875,416.345886 
	C135.587250,422.693573 129.028732,425.998718 121.627296,423.820374 
	C115.209984,421.931671 109.288155,418.782013 103.832314,414.925873 
	C98.221848,410.960510 93.506645,405.955811 89.377693,400.515533 
	C84.036736,393.478302 86.608170,384.894501 94.491920,382.319946 
	C99.091064,380.818054 102.630501,382.702911 105.687935,385.855164 
	C107.653419,387.881592 109.393135,390.127014 111.480453,392.524750 
z"/>
		</symbol>
	</defs>
</svg>