<svg xmlns="http://www.w3.org/2000/svg" fill="none" viewBox="0 0 496 496">
	<path fill="#000000" opacity="1.000000" stroke="none" d="
M286.468658,497.000000 
	C277.900085,493.143250 269.229523,490.646271 261.265594,486.438599 
	C247.777908,479.312531 241.079086,467.011078 242.682785,451.882446 
	C244.319199,436.445435 259.357391,424.805237 274.654266,427.345428 
	C289.138031,429.750549 302.666412,435.648346 316.877686,439.138763 
	C338.463318,444.440460 360.310394,447.217712 382.502991,447.707733 
	C394.710541,447.977295 402.898315,442.592834 408.046967,431.490082 
	C424.365875,396.299316 436.369934,359.760254 443.345276,321.584991 
	C444.236206,316.708923 443.379089,312.328278 440.053589,308.538513 
	C438.405457,306.660278 436.693207,304.830658 435.152313,302.867340 
	C428.264526,294.091522 428.966675,285.630646 437.144928,278.083160 
	C448.621948,267.491333 448.506683,264.878174 436.132111,255.123917 
	C425.969604,247.113297 424.754517,238.468857 432.912537,228.559250 
	C438.283905,222.034622 438.761475,215.054199 436.330841,207.465439 
	C428.718262,183.698196 421.067047,159.943344 413.445831,136.178848 
	C408.823273,121.764748 404.245850,107.336151 399.606018,92.927635 
	C398.740906,90.241081 397.962036,87.465485 396.640808,85.000313 
	C394.184357,80.416931 391.004333,80.236977 387.901581,84.403931 
	C380.142853,94.823708 372.375427,105.239777 364.801849,115.793961 
	C354.438477,130.235977 344.809021,133.664459 327.700592,128.350281 
	C310.103607,122.884338 292.202789,119.806808 273.708588,120.264450 
	C239.958099,121.099602 208.800568,130.214203 180.503738,148.814957 
	C170.610809,155.318054 160.870132,162.045029 151.918427,169.786713 
	C146.102737,174.816345 140.204758,175.147125 133.463669,172.150345 
	C113.229172,163.154984 92.929565,154.306076 72.652054,145.407578 
	C71.738022,145.006454 70.801018,144.652466 69.858994,144.321228 
	C63.068333,141.933517 59.219112,144.887787 60.464046,152.000107 
	C62.351898,162.785416 64.576752,173.515198 66.832893,184.231842 
	C71.158859,204.780136 79.270515,224.224792 84.568275,244.489014 
	C95.727890,287.175079 94.949234,329.658417 82.204117,371.920959 
	C77.369057,387.953918 66.552109,396.639862 50.176506,399.538422 
	C33.832043,402.431458 17.354261,404.938019 1.322920,410.840942 
	C1.000000,389.979095 1.000000,368.958221 1.327226,347.556702 
	C6.220629,346.406219 10.849403,345.896118 15.340246,344.813751 
	C25.375744,342.394928 30.369118,336.704803 31.582865,326.451202 
	C34.328812,303.253693 32.756866,280.345825 26.057878,257.940948 
	C18.165682,231.545425 9.722219,205.294464 5.192569,178.041183 
	C3.427578,167.421860 2.376345,156.683914 1.000000,146.000000 
	C1.000000,133.312439 1.000000,120.624878 1.192635,107.161057 
	C1.817840,104.791710 2.284772,103.207047 2.677506,101.604195 
	C5.637816,89.522438 12.100310,80.584953 24.962719,78.090782 
	C31.674013,76.789375 38.615456,77.007538 45.351570,78.065880 
	C72.754387,82.371307 99.232468,90.137695 124.816658,100.748772 
	C133.730118,104.445648 141.140305,103.731155 149.102966,98.223816 
	C171.379608,82.816315 195.914093,72.298416 222.313202,66.148079 
	C250.984390,59.468418 279.969177,58.223396 308.961304,62.764362 
	C321.219177,64.684280 329.946564,62.125122 337.509949,51.955177 
	C348.353424,37.374779 360.990234,24.308514 374.905853,12.486287 
	C380.715637,7.550472 387.529510,4.643468 394.000000,1.000000 
	C398.024536,1.000000 402.049103,1.000000 406.791595,1.233281 
	C418.454102,5.060657 425.291992,13.134821 431.083984,22.579023 
	C445.536926,46.145390 455.167786,71.736359 463.241669,98.005173 
	C464.605286,102.441795 465.582397,107.025146 468.011200,111.062912 
	C470.987091,116.010216 475.427032,117.967545 481.086334,117.186302 
	C486.387634,116.454483 491.689453,116.542892 497.000000,117.000000 
	C497.000000,138.020889 497.000000,159.041794 496.662659,180.406342 
	C492.231598,179.603668 490.678741,181.329971 491.341675,185.301727 
	C492.472961,192.079330 492.790649,199.102493 497.000000,205.000000 
	C497.000000,256.354218 497.000000,307.708466 496.872375,359.875427 
	C491.212402,384.483429 483.221893,407.493073 474.541290,430.284576 
	C474.146118,431.322113 473.617432,432.462006 474.665100,434.237823 
	C482.032654,435.218933 489.630554,435.205292 497.000000,432.000000 
	C497.000000,453.632263 497.000000,475.264557 497.000000,497.000000 
	C426.979126,497.000000 356.958221,497.000000 286.468658,497.000000 
z"></path>
	<path fill="#000000" opacity="1.000000" stroke="none" d="
M308.482361,319.577667 
	C321.555939,316.284668 322.851074,300.864197 317.347595,290.954193 
	C315.593994,287.796509 312.974426,285.107666 310.669708,282.270447 
	C304.588501,274.784332 304.325470,267.223053 309.939178,259.419617 
	C317.122803,249.433990 328.946930,245.579224 339.829559,249.675095 
	C351.704498,254.144470 356.293793,262.462769 353.414398,274.815552 
	C351.461395,283.194061 349.541138,291.437469 355.324005,299.208649 
	C357.177673,301.699677 359.364197,303.587311 362.265564,304.670776 
	C368.421600,306.969727 373.330902,304.296143 374.567627,297.851776 
	C375.317871,293.942413 375.758972,289.984283 377.206665,286.218262 
	C379.917389,279.166504 384.717255,274.779907 392.479095,274.728790 
	C400.951477,274.673004 408.755188,276.976288 412.136993,285.583893 
	C418.558624,301.928680 415.451324,317.295166 404.223083,330.308563 
	C391.882996,344.610504 375.997894,349.806946 357.417145,344.378143 
	C349.251923,341.992462 342.560944,344.007568 336.260864,349.507080 
	C315.548920,367.587158 281.347229,363.653076 265.519165,341.300262 
	C259.404877,332.665466 255.466324,323.084900 258.695557,312.234833 
	C261.234192,303.705109 267.211365,298.085052 276.035126,296.944366 
	C284.506622,295.849243 290.625488,300.435181 294.837708,307.597198 
	C296.186890,309.891205 297.308929,312.318909 298.661041,314.611023 
	C300.764435,318.176788 303.656738,320.393555 308.482361,319.577667 
z"></path>
	<path fill="#000000" opacity="1.000000" stroke="none" d="
M249.818359,204.757294 
	C271.813782,210.851959 280.338928,231.318802 269.265869,252.821518 
	C263.969421,263.106659 248.888245,269.455902 237.538925,266.810760 
	C223.119461,263.450073 213.489151,253.011093 212.699295,239.885330 
	C211.473602,219.516327 220.956528,207.369019 240.529968,204.031265 
	C243.611633,203.505783 246.461914,204.297104 249.818359,204.757294 
z"></path>
	<path fill="#000000" opacity="1.000000" stroke="none" d="
M406.319824,208.168304 
	C407.422699,232.173111 386.276794,243.247635 370.142151,239.638657 
	C348.511078,234.800232 337.117249,213.654434 349.310516,192.775620 
	C356.188660,180.997940 369.432281,176.069122 382.984283,179.338531 
	C396.222076,182.532150 404.943024,193.136322 406.319824,208.168304 
z"></path>
	<path fill="#000000" opacity="1.000000" stroke="none" d="
M171.587616,352.778320 
	C161.613174,355.588684 152.133286,358.654480 142.368958,360.740692 
	C130.090179,363.364105 123.174118,358.883789 120.790413,346.583862 
	C119.819466,341.573761 121.660805,337.936523 125.365898,334.749878 
	C134.909119,326.542175 146.304703,321.886047 157.956833,317.866272 
	C167.394180,314.610535 177.108124,312.699860 187.231003,312.553131 
	C198.375549,312.391571 204.784546,320.513458 203.909698,331.967834 
	C203.315292,339.750061 199.602951,344.832367 191.512360,346.690186 
	C184.890915,348.210663 178.473602,350.620178 171.587616,352.778320 
z"></path>
	<path fill="#000000" opacity="1.000000" stroke="none" d="
M117.061401,266.940887 
	C122.890373,263.171295 129.245895,262.266449 135.490250,261.914276 
	C148.750702,261.166321 162.045120,260.837524 175.328583,260.739777 
	C185.626709,260.663940 192.385956,265.945526 194.439804,274.841339 
	C196.316513,282.969879 192.677475,290.050293 185.194260,293.649567 
	C178.632660,296.805603 171.566360,296.352966 164.675949,296.913849 
	C155.409088,297.668121 146.092758,297.794495 136.805481,298.326935 
	C132.437775,298.577362 128.141846,298.021118 123.944733,297.138550 
	C117.759010,295.837830 113.546585,291.969482 112.001831,285.732239 
	C110.274483,278.757782 110.581879,272.167603 117.061401,266.940887 
z"></path>
	<style>
        path { fill: #000; }
        @media (prefers-color-scheme: dark) {
            path { fill: #FFF; }
        }
	</style>
</svg>